<?xml version="1.0" encoding="iso-8859-1"?>
<!-- Generator: Adobe Illustrator 19.2.1, SVG Export Plug-In . SVG Version: 6.00 Build 0)  -->
<svg version="1.1" id="Layer_1" xmlns="http://www.w3.org/2000/svg" xmlns:xlink="http://www.w3.org/1999/xlink" x="0px" y="0px"
	 viewBox="0 0 200 200" style="enable-background:new 0 0 200 200;" xml:space="preserve">
<style type="text/css">
	.st0{fill:none;stroke:#C4C4C4;stroke-width:2;stroke-miterlimit:10;}
	.st1{fill:none;stroke:#C4C4C4;stroke-miterlimit:10;}
	.st2{fill:none;stroke:#C4C4C4;stroke-width:2;stroke-linejoin:round;stroke-miterlimit:10;}
</style>
<g id="timezone-clock_x60_49x49">
	<circle class="st0" cx="24.186" cy="24.187" r="23.186"/>
	<line class="st0" x1="24.186" y1="10.493" x2="24.186" y2="4.695"/>
	<line class="st1" x1="32.522" y1="9.839" x2="33.979" y2="7.333"/>
	<line class="st1" x1="38.603" y1="15.969" x2="41.121" y2="14.534"/>
	<line class="st1" x1="38.421" y1="32.713" x2="40.908" y2="34.203"/>
	<line class="st1" x1="32.211" y1="38.711" x2="33.612" y2="41.249"/>
	<line class="st1" x1="15.471" y1="38.307" x2="13.948" y2="40.773"/>
	<line class="st1" x1="9.556" y1="32.017" x2="7" y2="33.384"/>
	<line class="st1" x1="10.184" y1="15.284" x2="7.738" y2="13.727"/>
	<line class="st1" x1="16.552" y1="9.453" x2="15.22" y2="6.879"/>
	<line class="st0" x1="37.88" y1="24.187" x2="43.678" y2="24.187"/>
	<line class="st0" x1="24.186" y1="37.88" x2="24.186" y2="43.678"/>
	<line class="st0" x1="10.493" y1="24.187" x2="4.695" y2="24.187"/>
	<polyline class="st2" points="36.126,17.619 24.186,24.187 24.186,24.187 17.125,20.218 	"/>
</g>
</svg>
