<?xml version="1.0" encoding="iso-8859-1"?>
<!-- Generator: Adobe Illustrator 19.2.1, SVG Export Plug-In . SVG Version: 6.00 Build 0)  -->
<svg version="1.1" id="svgs" xmlns="http://www.w3.org/2000/svg" xmlns:xlink="http://www.w3.org/1999/xlink" x="0px" y="0px"
	 viewBox="0 0 200 200" style="enable-background:new 0 0 200 200;" xml:space="preserve">
<style type="text/css">
	.st0{fill:none;stroke:#C4C4C4;stroke-width:2;stroke-miterlimit:10;}
	.st1{fill:none;stroke:#C4C4C4;stroke-miterlimit:10;}
	.st2{fill:none;stroke:#C4C4C4;stroke-width:2;stroke-linejoin:round;stroke-miterlimit:10;}
</style>
<g id="timezone-clock">
	<circle class="st0" cx="29.967" cy="30.364" r="23.186"/>
	<line class="st0" x1="29.967" y1="16.67" x2="29.967" y2="10.872"/>
	<line class="st1" x1="38.303" y1="16.016" x2="39.76" y2="13.51"/>
	<line class="st1" x1="44.383" y1="22.146" x2="46.902" y2="20.711"/>
	<line class="st1" x1="44.202" y1="38.89" x2="46.689" y2="40.38"/>
	<line class="st1" x1="37.992" y1="44.889" x2="39.393" y2="47.426"/>
	<line class="st1" x1="21.252" y1="44.484" x2="19.729" y2="46.951"/>
	<line class="st1" x1="15.337" y1="38.194" x2="12.781" y2="39.561"/>
	<line class="st1" x1="15.965" y1="21.461" x2="13.519" y2="19.905"/>
	<line class="st1" x1="22.333" y1="15.63" x2="21.001" y2="13.057"/>
	<line class="st0" x1="43.661" y1="30.364" x2="49.459" y2="30.364"/>
	<line class="st0" x1="29.967" y1="44.057" x2="29.967" y2="49.855"/>
	<line class="st0" x1="16.274" y1="30.364" x2="10.476" y2="30.364"/>
	<polyline class="st2" points="41.907,23.796 29.967,30.364 29.967,30.364 22.906,26.395 	"/>
</g>
</svg>
